<?xml version="1.0" standalone="no"?>
<!DOCTYPE svg PUBLIC "-//W3C//DTD SVG 20010904//EN"
 "http://www.w3.org/TR/2001/REC-SVG-20010904/DTD/svg10.dtd">
<svg version="1.0" xmlns="http://www.w3.org/2000/svg"
 width="50.000000pt" height="50.000000pt" viewBox="0 0 50.000000 50.000000"
 preserveAspectRatio="xMidYMid meet">

<g transform="translate(0.000000,50.000000) scale(0.100000,-0.100000)"
fill="#000000" stroke="none">
<path d="M165 401 c-51 -24 -82 -47 -73 -56 3 -4 23 5 45 19 70 46 160 47 228
0 21 -14 40 -23 42 -20 21 21 -94 76 -157 76 -25 0 -63 -9 -85 -19z"/>
<path d="M40 278 c0 -7 11 -26 24 -43 l25 -30 -32 -32 c-41 -43 -26 -56 17
-14 33 32 34 32 60 16 l25 -17 -19 -39 c-22 -43 -24 -49 -12 -49 5 0 17 18 27
40 19 41 24 44 63 34 18 -5 22 -13 22 -50 0 -24 5 -44 10 -44 6 0 10 20 10 45
0 29 4 45 13 45 6 0 21 3 33 6 16 4 24 -2 39 -35 10 -23 22 -41 27 -41 11 0
10 2 -7 43 -20 47 -19 52 8 64 19 9 27 6 54 -20 43 -40 56 -26 16 16 l-32 32
25 30 c45 56 24 57 -28 2 -77 -81 -151 -97 -243 -53 -47 21 -105 75 -105 97 0
5 -4 9 -10 9 -5 0 -10 -6 -10 -12z"/>
</g>
</svg>
