<?xml version="1.0" standalone="no"?>
<!DOCTYPE svg PUBLIC "-//W3C//DTD SVG 20010904//EN"
 "http://www.w3.org/TR/2001/REC-SVG-20010904/DTD/svg10.dtd">
<svg version="1.0" xmlns="http://www.w3.org/2000/svg"
 width="50.000000pt" height="50.000000pt" viewBox="0 0 50.000000 50.000000"
 preserveAspectRatio="xMidYMid meet">

<g transform="translate(0.000000,50.000000) scale(0.100000,-0.100000)"
fill="#000000" stroke="none">
<path d="M168 365 c-44 -16 -115 -63 -143 -95 l-20 -22 43 -39 c130 -115 277
-114 404 2 l43 39 -43 39 c-85 78 -199 109 -284 76z m164 -35 c45 -56 -6 -150
-81 -150 -94 0 -140 135 -58 170 39 17 119 5 139 -20z m-197 -50 c0 -43 5 -54
33 -82 28 -28 39 -33 82 -33 43 0 54 5 82 33 28 28 33 39 33 81 l0 49 28 -16
c16 -10 38 -27 49 -39 l21 -23 -22 -24 c-78 -83 -211 -106 -308 -52 -61 34
-98 70 -88 86 5 9 83 70 89 70 1 0 1 -22 1 -50z"/>
<path d="M216 314 c-31 -30 -9 -84 34 -84 24 0 50 26 50 50 0 24 -26 50 -50
50 -10 0 -26 -7 -34 -16z"/>
</g>
</svg>
